<?xml version="1.0" encoding="utf-8"?>
<!-- Generator: Adobe Illustrator 26.0.1, SVG Export Plug-In . SVG Version: 6.00 Build 0)  -->
<svg version="1.1" id="Layer_1" xmlns="http://www.w3.org/2000/svg" xmlns:xlink="http://www.w3.org/1999/xlink" x="0px" y="0px"
	 viewBox="0 0 458.8 103.6" style="enable-background:new 0 0 458.8 103.6;" xml:space="preserve">
<style type="text/css">
	.st0{fill:#FFFFFF;}
	.st1{fill:#43AB35;}
</style>
<g>
	<path class="st0" d="M98.9,21.6C98.9,8.7,90.4,0.1,77.6,0.1C58.9,0,40.1,0,21.4,0C8.8,0.1,0.1,8.6,0.1,21.2C0,41.6,0,62.1,0.1,82.5
		c0.1,12.5,8.7,21.1,21.4,21.1c18.6,0.1,37.1,0,55.7,0c13.5,0,21.8-8.5,21.8-22.1c0-9.8,0-19.7,0-29.5C99,41.9,99,31.8,98.9,21.6z
		 M67.9,14.3c4.2,0.1,7.3,3.4,7.3,7.6c0,4.2-3.4,7.5-7.5,7.5c-4,0-7.6-3.5-7.7-7.5C59.9,17.7,63.6,14.2,67.9,14.3z M38.1,21.8
		c4.1,0.1,7.5,3.6,7.4,7.6c-0.1,3.9-3.9,7.4-7.8,7.4c-4.2,0-7.8-3.8-7.5-8C30.4,24.7,33.9,21.6,38.1,21.8z M44.3,87.3
		c-0.7,0.7-1.7,1.1-2.7,1.1h-7.5c-2.1,0-3.8-1.7-3.8-3.8c0-1.1,0.4-2,1.1-2.7c0.7-0.7,1.7-1.1,2.7-1.1h7.5c2.1,0,3.8,1.7,3.8,3.8
		C45.4,85.7,45,86.6,44.3,87.3z M38.2,73.7h-0.5c-14.3,0-14.8-0.5-14.8-15c0-14.2,0.8-14.9,15-14.9c14.4,0,15.2,0.9,15.2,15.3
		C53.1,72.9,52.2,73.7,38.2,73.7z M75.2,80.4c-0.1,5-2.8,7.9-7.3,8c-4.5,0-7.7-2.9-7.8-7.7c-0.1-12.2-0.1-24.4,0-36.6
		c0-4.5,3.9-8,8-7.7c4.1,0.2,7.1,3.5,7.1,7.9c0.1,6,0,12,0,18C75.2,68.4,75.2,74.4,75.2,80.4z"/>
	<path class="st1" d="M53.1,59.1c0,13.8-0.9,14.7-14.9,14.7h-0.5c-14.3,0-14.8-0.5-14.8-15c0-14.2,0.8-14.9,15-14.9
		C52.2,43.8,53.1,44.7,53.1,59.1z"/>
	<path class="st1" d="M75.2,62.4c0,6,0,12,0,18c-0.1,5-2.8,7.9-7.3,8c-4.5,0-7.7-2.9-7.8-7.7c-0.1-12.2-0.1-24.4,0-36.6
		c0-4.5,3.9-8,8-7.7c4.1,0.2,7.1,3.5,7.1,7.9C75.3,50.4,75.2,56.4,75.2,62.4z"/>
	<path class="st1" d="M75.2,21.9c0,4.2-3.4,7.5-7.5,7.5c-4,0-7.6-3.5-7.7-7.5c-0.1-4.2,3.6-7.8,7.9-7.7
		C72.1,14.4,75.2,17.6,75.2,21.9z"/>
	<path class="st1" d="M45.6,29.4c-0.1,3.9-3.9,7.4-7.8,7.4c-4.2,0-7.8-3.8-7.5-8c0.2-4.1,3.7-7.2,7.9-7
		C42.3,21.9,45.7,25.4,45.6,29.4z"/>
</g>
<g>
	<path class="st0" d="M140.4,66.5c-0.2,0.2-0.2,0.5-0.2,0.9v11.5c0,0.7-0.2,1.3-0.5,1.6c-0.3,0.3-0.9,0.5-1.6,0.5h-9.5
		c-0.7,0-1.2-0.2-1.5-0.5c-0.3-0.3-0.5-0.8-0.5-1.5V28.2c0-0.7,0.2-1.3,0.5-1.6c0.3-0.3,0.8-0.5,1.5-0.5H147
		c16.1,0,24.2,6.6,24.2,19.8c0,6.7-2.1,11.7-6.3,15.1c-4.2,3.4-10.4,5.1-18.4,5.1h-5.1C140.9,66.2,140.6,66.3,140.4,66.5z
		 M140.4,38.9c-0.2,0.2-0.2,0.5-0.2,0.9v12.7c0,0.4,0.1,0.7,0.2,0.9c0.2,0.2,0.5,0.3,0.9,0.3h5.1c3.5,0,6.1-0.6,7.9-1.9
		c1.8-1.3,2.7-3.2,2.7-5.7c0-2.6-0.9-4.4-2.6-5.6c-1.7-1.2-4.4-1.8-8-1.8h-5.1C140.9,38.7,140.6,38.8,140.4,38.9z"/>
	<path class="st0" d="M193.2,63.5c-0.2,0.2-0.2,0.5-0.2,0.9v14.5c0,0.7-0.2,1.3-0.5,1.6c-0.3,0.3-0.9,0.5-1.6,0.5h-9.5
		c-0.7,0-1.2-0.2-1.5-0.5c-0.3-0.3-0.5-0.8-0.5-1.5V28.2c0-0.7,0.2-1.3,0.5-1.6c0.3-0.3,0.8-0.5,1.5-0.5h19.2
		c7.7,0,13.4,1.5,17.3,4.5c3.9,3,5.8,7.5,5.8,13.5c0,3.8-0.8,7-2.5,9.6c-1.7,2.7-4,4.7-7,6.3l12.1,18.4c0.4,0.5,0.5,1,0.5,1.4
		c0,0.7-0.6,1.1-1.8,1.1h-10.6c-1.1,0-1.9-0.2-2.5-0.5c-0.6-0.3-1.2-1-1.8-1.8l-8.8-14.2c-0.3-0.4-0.5-0.7-0.8-0.9
		c-0.3-0.2-0.7-0.2-1.2-0.2h-5.2C193.7,63.2,193.4,63.3,193.2,63.5z M193.2,38.9c-0.2,0.2-0.2,0.5-0.2,0.9v10.2c0,0.5,0.1,0.8,0.2,1
		c0.2,0.2,0.5,0.3,0.9,0.3h5.9c3.2,0,5.6-0.5,7.2-1.6c1.6-1.1,2.3-2.7,2.3-4.9s-0.8-3.8-2.3-4.7c-1.6-1-4-1.4-7.2-1.4h-5.9
		C193.7,38.7,193.4,38.8,193.2,38.9z"/>
	<path class="st0" d="M234,39c2.5-4.3,6-7.7,10.4-10.2c4.4-2.5,9.4-3.7,15-3.7c5.6,0,10.7,1.2,15.1,3.6c4.5,2.4,7.9,5.8,10.4,10.1
		c2.5,4.3,3.8,9.2,3.8,14.7c0,5.5-1.3,10.4-3.8,14.7c-2.5,4.3-6,7.7-10.5,10.1c-4.5,2.4-9.5,3.6-15.2,3.6c-5.5,0-10.5-1.2-14.9-3.6
		c-4.4-2.4-7.9-5.7-10.4-10s-3.8-9.2-3.8-14.6C230.2,48.2,231.5,43.3,234,39z M246.2,61.9c1.3,2.4,3.1,4.3,5.4,5.6
		c2.3,1.3,4.9,2,7.7,2c2.9,0,5.5-0.7,7.8-2c2.3-1.3,4.2-3.2,5.5-5.6c1.4-2.4,2-5.1,2-8.2c0-3.2-0.7-6-2-8.4
		c-1.3-2.4-3.2-4.3-5.5-5.6c-2.3-1.3-4.9-2-7.8-2c-2.9,0-5.5,0.7-7.8,2c-2.3,1.3-4.1,3.2-5.4,5.6c-1.3,2.4-2,5.2-2,8.3
		C244.3,56.7,244.9,59.5,246.2,61.9z"/>
	<path class="st0" d="M298,26.6c0.3-0.3,0.8-0.5,1.5-0.5H320c6.8,0,12,1.2,15.5,3.6c3.5,2.4,5.3,6.3,5.3,11.7c0,2.7-0.6,4.9-1.8,6.8
		c-1.2,1.9-2.9,3.3-5,4.3c2.6,0.8,4.7,2.2,6.2,4.3c1.5,2.1,2.3,4.5,2.3,7.4c0,5.8-1.9,10-5.8,12.7c-3.9,2.7-9.4,4-16.5,4h-20.7
		c-0.7,0-1.2-0.2-1.5-0.5c-0.3-0.3-0.5-0.8-0.5-1.5V28.2C297.5,27.5,297.7,26.9,298,26.6z M311.4,38.3c-0.2,0.2-0.2,0.5-0.2,0.9v7
		c0,0.4,0.1,0.7,0.2,0.9c0.2,0.2,0.5,0.3,0.9,0.3h7c2.7,0,4.7-0.4,5.9-1.1c1.2-0.7,1.8-1.9,1.8-3.6c0-1.7-0.6-2.9-1.8-3.6
		c-1.2-0.7-3.2-1.1-5.9-1.1h-7C311.8,38,311.5,38.1,311.4,38.3z M326.5,67.8c1.3-0.8,2-2,2-3.8s-0.7-3-2-3.7
		c-1.4-0.8-3.4-1.1-6.2-1.1h-8c-0.5,0-0.8,0.1-0.9,0.2c-0.2,0.2-0.2,0.5-0.2,0.9v7.4c0,0.4,0.1,0.7,0.2,0.9c0.2,0.2,0.5,0.3,0.9,0.3
		h8C323.1,69,325.2,68.6,326.5,67.8z"/>
	<path class="st0" d="M353.5,36.4c2.1-3.8,5-6.6,8.8-8.5s8.1-2.8,13.1-2.8c4.8,0,9.1,0.9,12.8,2.8c3.7,1.9,6.6,4.7,8.6,8.4
		s3.1,8.4,3.1,13.9v28.6c0,0.7-0.2,1.3-0.5,1.6c-0.3,0.3-0.9,0.5-1.6,0.5h-9.5c-0.7,0-1.2-0.2-1.5-0.5c-0.3-0.3-0.5-0.8-0.5-1.5v-12
		c0-0.5-0.1-0.8-0.3-0.9c-0.2-0.2-0.5-0.2-0.9-0.2h-19.9c-0.5,0-0.8,0.1-0.9,0.2c-0.2,0.2-0.2,0.5-0.2,0.9v12c0,0.7-0.2,1.3-0.5,1.6
		c-0.3,0.3-0.9,0.5-1.6,0.5h-9.5c-0.7,0-1.2-0.2-1.5-0.5c-0.3-0.3-0.5-0.8-0.5-1.5V50.2C350.4,44.8,351.4,40.2,353.5,36.4z
		 M364.2,52.9c0.2,0.2,0.5,0.3,0.9,0.3h19.9c0.4,0,0.7-0.1,0.9-0.3c0.2-0.2,0.3-0.5,0.3-0.9v-1.3c0-4.1-1-7.3-2.9-9.6
		c-1.9-2.3-4.7-3.4-8.3-3.4c-3.6,0-6.3,1.1-8.3,3.4c-1.9,2.3-2.9,5.5-2.9,9.6V52C364,52.4,364.1,52.7,364.2,52.9z"/>
	<path class="st0" d="M425.1,63.5c-0.2,0.2-0.2,0.5-0.2,0.9v14.5c0,0.7-0.2,1.3-0.5,1.6c-0.3,0.3-0.9,0.5-1.6,0.5h-9.5
		c-0.7,0-1.2-0.2-1.5-0.5c-0.3-0.3-0.5-0.8-0.5-1.5V28.2c0-0.7,0.2-1.3,0.5-1.6c0.3-0.3,0.8-0.5,1.5-0.5h19.2
		c7.7,0,13.4,1.5,17.3,4.5c3.9,3,5.8,7.5,5.8,13.5c0,3.8-0.8,7-2.5,9.6c-1.7,2.7-4,4.7-7,6.3l12.1,18.4c0.4,0.5,0.5,1,0.5,1.4
		c0,0.7-0.6,1.1-1.8,1.1h-10.6c-1.1,0-1.9-0.2-2.5-0.5c-0.6-0.3-1.2-1-1.8-1.8l-8.8-14.2c-0.3-0.4-0.5-0.7-0.8-0.9
		c-0.3-0.2-0.7-0.2-1.2-0.2H426C425.5,63.2,425.2,63.3,425.1,63.5z M425.1,38.9c-0.2,0.2-0.2,0.5-0.2,0.9v10.2c0,0.5,0.1,0.8,0.2,1
		c0.2,0.2,0.5,0.3,0.9,0.3h5.9c3.2,0,5.6-0.5,7.2-1.6c1.6-1.1,2.3-2.7,2.3-4.9s-0.8-3.8-2.3-4.7c-1.6-1-4-1.4-7.2-1.4H426
		C425.5,38.7,425.2,38.8,425.1,38.9z"/>
</g>
<path class="st1" d="M45.4,84.6c0,1.1-0.4,2-1.1,2.7c-0.7,0.7-1.7,1.1-2.7,1.1h-7.5c-2.1,0-3.8-1.7-3.8-3.8c0-1.1,0.4-2,1.1-2.7
	c0.7-0.7,1.7-1.1,2.7-1.1h7.5C43.7,80.8,45.4,82.5,45.4,84.6z"/>
</svg>
